<svg width="87" height="134" viewBox="0 0 87 134" fill="none" xmlns="http://www.w3.org/2000/svg">
<path d="M74.9999 122C74.9999 122 64.2548 134 50.9999 134C37.7451 134 26.9999 122 26.9999 122C26.9999 122 37.7451 110 50.9999 110C64.2548 110 74.9999 122 74.9999 122Z" fill="#D9B448"/>
<path d="M50.5692 110.392C50.5692 110.392 35.2636 115.412 23.7845 108.785C12.3055 102.157 8.99994 86.3923 8.99994 86.3923C8.99994 86.3923 24.3055 81.3726 35.7845 88C47.2636 94.6274 50.5692 110.392 50.5692 110.392Z" fill="#D9B448"/>
<path d="M34.3923 87.5692C34.3923 87.5692 18.6274 84.2636 12 72.7846C5.37258 61.3056 10.3923 46 10.3923 46C10.3923 46 26.1572 49.3056 32.7846 60.7846C39.412 72.2636 34.3923 87.5692 34.3923 87.5692Z" fill="#D9B448"/>
<path d="M32.9999 62C32.9999 62 20.9999 51.2548 20.9999 38C20.9999 24.7452 32.9999 14 32.9999 14C32.9999 14 44.9999 24.7452 44.9999 38C44.9999 51.2548 32.9999 62 32.9999 62Z" fill="#D9B448"/>
<path d="M44.4852 42.4264C44.4852 42.4264 43.5979 26.3431 52.9704 16.9706C62.343 7.59798 78.4263 8.48528 78.4263 8.48528C78.4263 8.48528 79.3136 24.5685 69.941 33.9411C60.5684 43.3137 44.4852 42.4264 44.4852 42.4264Z" fill="#D9B448"/>
</svg>
